<svg version="1.1" id="Layer_1" xmlns="http://www.w3.org/2000/svg" xmlns:xlink="http://www.w3.org/1999/xlink" x="0px" y="0px"
	 width="100%" viewBox="0 0 1024 336" enable-background="new 0 0 1024 336" xml:space="preserve">
<path fill="#000000" opacity="1.000000" stroke="none" 
	d="
M52.675102,178.027161 
	C54.214603,134.929428 73.338684,101.723289 107.379295,76.962318 
	C128.576202,61.543797 152.806213,53.382710 178.949203,54.054878 
	C216.970215,55.032436 248.986984,70.234184 273.746246,99.417557 
	C311.074860,143.416245 314.617310,204.463959 281.808868,251.802109 
	C260.703644,282.254089 230.735306,299.745117 194.032196,304.198822 
	C148.852005,309.681183 111.065460,294.255768 81.424889,260.000122 
	C61.351555,236.801331 52.206215,209.228592 52.675102,178.027161 
M273.077026,127.415657 
	C266.434052,115.470146 257.621277,105.308655 247.099457,96.692978 
	C226.895737,80.149429 203.985626,70.174255 177.549881,70.473976 
	C155.684097,70.721870 135.446991,77.234665 117.892990,90.383041 
	C81.850639,117.379631 64.617409,152.692230 71.149460,198.352295 
	C77.999069,246.232147 119.581856,284.310364 170.147186,288.401093 
	C202.486206,291.017273 230.704010,279.744598 254.439621,257.692871 
	C287.733521,226.761017 297.700775,171.248520 273.077026,127.415657 
z"/>
<path fill="#000000" opacity="1.000000" stroke="none" 
	d="
M454.336243,243.237366 
	C452.562653,246.093323 452.850952,250.693802 448.921753,250.638351 
	C445.039856,250.583588 444.947601,246.251282 443.753204,243.470016 
	C431.662872,215.316238 419.630402,187.137589 407.550568,158.979294 
	C407.055695,157.825821 406.679260,156.427643 404.851227,156.081833 
	C402.511230,161.390427 403.163727,167.173981 402.651520,172.666290 
	C400.918488,191.249557 400.942291,209.920609 401.230865,228.572144 
	C401.330383,235.004395 405.559357,239.215744 413.100098,241.627777 
	C416.083893,242.582214 421.113953,242.388412 420.500977,246.644196 
	C419.884216,250.926331 415.043610,249.365021 411.972839,249.330490 
	C399.813141,249.193741 387.661133,248.676025 375.509338,249.757416 
	C373.106201,249.971283 369.947449,250.103622 369.506531,246.784592 
	C369.091766,243.662369 372.171692,243.332230 374.296936,242.724350 
	C382.584778,240.353867 386.547302,234.467896 387.562042,226.367126 
	C390.641632,201.782516 393.040680,177.129547 394.815582,152.413498 
	C395.149109,147.769226 395.535522,143.139694 395.746826,138.481827 
	C396.056610,131.653259 393.056091,127.353271 386.846558,125.094223 
	C383.882782,124.015968 380.811432,123.236969 377.818207,122.234680 
	C375.632263,121.502731 373.719391,120.178864 374.019348,117.640442 
	C374.309387,115.186340 376.526184,114.776093 378.600952,114.696838 
	C390.939636,114.225471 403.222443,115.641708 415.543304,115.853813 
	C418.556519,115.905693 420.310211,117.939583 421.239929,120.699112 
	C430.660492,148.660095 443.052582,175.438995 453.929993,202.820465 
	C454.831696,205.090302 455.367706,207.611618 457.460541,209.258316 
	C459.769012,208.719223 459.919403,206.617340 460.625031,205.055756 
	C470.157135,183.961395 479.501526,162.780853 489.207153,141.767044 
	C492.128998,135.440964 493.037720,128.704147 494.680664,122.111382 
	C495.620605,118.339577 497.376801,116.684898 501.542664,116.556274 
	C511.847076,116.238121 522.132141,115.309174 532.427734,114.670380 
	C534.084900,114.567574 535.761292,114.622383 537.419861,114.735291 
	C539.190369,114.855820 540.772888,115.506493 541.102844,117.475098 
	C541.431885,119.438683 540.146362,120.599899 538.534363,121.307175 
	C535.639282,122.577362 532.656677,123.650024 529.774902,124.947960 
	C522.239075,128.342072 520.273438,131.542923 520.629150,139.750214 
	C521.530273,160.538971 522.375183,181.330658 523.407471,202.112991 
	C523.852783,211.079041 524.656189,220.028900 525.389404,228.978546 
	C525.911133,235.347321 530.231567,238.520813 535.636475,240.634720 
	C538.113647,241.603577 540.689026,242.326080 543.146667,243.338135 
	C544.611633,243.941391 545.619934,245.125290 545.284546,246.885529 
	C544.942444,248.681198 543.503052,249.189453 541.937317,249.312042 
	C540.445740,249.428848 538.940857,249.413803 537.442383,249.399246 
	C521.119934,249.240585 504.798370,248.561172 488.478699,249.796982 
	C485.485382,250.023651 481.053772,250.622757 480.372589,246.819611 
	C479.635620,242.704758 484.126282,242.534012 487.034821,241.759232 
	C495.409454,239.528366 497.607147,236.026367 497.235474,227.337601 
	C496.495361,210.036453 496.214325,192.716156 495.629517,175.407623 
	C495.413330,169.010040 494.876068,162.623306 494.485260,156.231613 
	C494.054352,156.145187 493.623444,156.058762 493.192505,155.972336 
	C480.284576,184.942429 467.376678,213.912537 454.336243,243.237366 
z"/>
<path fill="#000000" opacity="1.000000" stroke="none" 
	d="
M713.080933,208.902664 
	C705.965332,219.932068 696.832825,227.319641 683.685364,228.792831 
	C679.466003,229.265610 675.335510,228.832458 671.328430,227.697327 
	C667.167480,226.518570 663.987061,227.825226 663.085388,231.748459 
	C662.188538,235.650803 666.042236,236.530167 668.819397,237.314392 
	C676.535034,239.493195 684.522949,240.048309 692.474609,240.652740 
	C700.296692,241.247330 708.053101,242.145599 715.531067,244.633057 
	C729.440002,249.259644 733.762756,257.734100 729.395142,271.671753 
	C722.958679,292.211548 697.885864,309.284119 676.376526,307.828064 
	C668.038757,307.263672 659.803650,306.316376 652.120667,302.684082 
	C642.341003,298.060486 638.183533,291.176483 638.699158,280.430695 
	C638.953369,275.133179 641.067383,270.832764 645.324036,267.581238 
	C649.541870,264.359283 653.694763,261.052338 657.846985,257.805511 
	C657.139526,255.639954 655.253174,255.500015 653.906982,254.719620 
	C650.193787,252.567139 647.283691,249.742569 645.570557,245.742401 
	C642.991699,239.720718 643.921814,235.679672 648.994324,231.637543 
	C652.118103,229.148300 655.320923,226.758301 658.472290,224.303238 
	C658.718689,224.111313 658.839172,223.757828 659.020752,223.474457 
	C659.238159,222.035461 658.092407,221.423279 657.239624,220.716919 
	C647.127380,212.340973 641.678894,202.035370 644.753845,188.666016 
	C647.961975,174.717468 657.887146,167.112030 670.781677,162.888565 
	C679.224548,160.123245 687.855286,160.483627 696.373718,162.824661 
	C707.195862,165.798813 718.132996,167.586136 729.405884,166.678009 
	C732.522400,166.426971 735.906189,166.431488 735.876465,170.752838 
	C735.849915,174.601761 734.563538,178.087067 729.949097,178.714996 
	C728.142151,178.960876 726.294495,179.005127 724.467163,178.983902 
	C720.031128,178.932358 718.072632,181.111420 718.310303,185.478241 
	C718.754333,193.638885 717.175598,201.367081 713.080933,208.902664 
M657.278381,276.801819 
	C657.306152,286.478546 661.974548,292.724823 671.224670,295.605194 
	C676.262756,297.173889 681.417053,297.000397 686.558044,296.702454 
	C697.618774,296.061493 705.572632,289.567505 708.597290,278.898651 
	C710.962463,270.556030 708.973083,266.807251 700.718750,264.214508 
	C692.243713,261.552521 683.350525,261.621094 674.677917,260.257324 
	C670.267578,259.563812 666.946777,261.128998 663.881653,263.998016 
	C660.371277,267.283844 657.917664,271.105286 657.278381,276.801819 
M669.492615,208.877228 
	C670.135681,210.043793 670.696960,211.265045 671.434570,212.368362 
	C677.976196,222.152435 687.644165,222.057175 692.955200,211.667847 
	C698.475708,200.868530 698.603455,189.489609 693.526978,178.405090 
	C691.281311,173.501602 687.460815,170.047333 681.514832,170.024353 
	C675.461853,170.000961 672.052917,173.812317 669.704590,178.631531 
	C664.974792,188.337997 665.336121,198.253662 669.492615,208.877228 
z"/>
<path fill="#000000" opacity="1.000000" stroke="none" 
	d="
M780.096436,239.707840 
	C791.719116,241.272537 803.178711,240.978378 813.936768,245.161377 
	C826.726685,250.134399 830.607910,257.994049 826.623474,271.164734 
	C820.407532,291.711639 795.367065,309.169159 773.940247,307.879120 
	C765.264343,307.356750 756.693359,306.364746 748.742371,302.434387 
	C737.421875,296.838440 732.914551,286.328461 736.846985,275.046112 
	C738.505066,270.289246 742.291321,267.618652 745.955383,264.749420 
	C748.958496,262.397736 751.985718,260.076782 754.969177,257.767822 
	C754.309143,255.523575 752.358276,255.507980 751.022095,254.750305 
	C746.954468,252.443710 743.868225,249.333450 742.291138,244.869339 
	C740.335449,239.333298 741.503418,235.208832 746.121277,231.581345 
	C749.504517,228.923706 752.953979,226.350464 756.099243,223.949341 
	C756.179504,221.514099 754.549316,220.975220 753.459534,220.059021 
	C736.184326,205.534882 736.832336,182.561066 755.052307,169.217896 
	C765.762146,161.374695 777.821411,159.260880 790.636658,162.256409 
	C802.495605,165.028397 814.294617,167.804703 826.624451,166.683609 
	C829.466003,166.425232 832.532837,166.287308 833.082520,170.323273 
	C833.553894,173.784744 830.785950,178.084824 827.477722,178.708801 
	C825.696289,179.044769 823.824524,179.064713 822.002808,178.992783 
	C817.148438,178.801102 814.931396,180.923309 815.276367,185.883453 
	C815.770020,192.983109 814.525879,199.765167 811.484375,206.275558 
	C803.682617,222.975143 786.612732,231.650482 768.658203,227.839096 
	C766.862244,227.457840 765.061279,226.745728 763.327942,227.793213 
	C761.569092,228.856140 760.095459,230.267090 760.165833,232.540878 
	C760.232605,234.697815 761.808838,235.728119 763.566528,236.432068 
	C768.722168,238.496994 774.167114,239.189484 780.096436,239.707840 
M787.516602,262.162659 
	C781.418579,261.484344 775.321533,260.797028 769.221863,260.134155 
	C767.708313,259.969666 766.245056,260.132080 764.914795,260.993256 
	C758.045227,265.440491 753.624268,271.307770 754.341919,279.926208 
	C754.983887,287.636902 759.841248,292.088684 766.577698,294.833862 
	C773.446838,297.633087 780.579224,297.441162 787.650574,295.977173 
	C798.155762,293.802277 805.493835,285.490906 806.560364,274.865173 
	C807.010803,270.377747 805.099243,267.089661 800.902649,265.358795 
	C796.898376,263.707275 792.715515,262.658997 787.516602,262.162659 
M763.367615,196.206451 
	C764.293945,203.383591 765.794373,210.373520 771.222900,215.685913 
	C776.760986,221.105515 783.192261,220.695297 788.093384,214.803360 
	C795.346008,206.084518 795.924438,185.188202 789.167175,176.016617 
	C782.868164,167.467072 772.898010,167.936066 767.591614,177.110428 
	C764.344971,182.723648 763.109802,188.864883 763.367615,196.206451 
z"/>
<path fill="#000000" opacity="1.000000" stroke="none" 
	d="
M614.061035,251.258881 
	C608.036926,249.786407 604.182495,245.919876 600.638733,241.112396 
	C597.467163,243.261887 594.712952,245.343506 591.759827,247.088333 
	C583.938477,251.709518 575.797485,253.868561 567.145142,249.308014 
	C554.140198,242.453201 553.052795,226.089172 565.160156,217.817856 
	C572.783386,212.609970 581.600342,209.757217 590.066528,206.323029 
	C595.608154,204.075134 598.487427,201.011368 597.810425,194.760452 
	C597.382935,190.812775 597.979675,186.765137 597.780640,182.779129 
	C597.486877,176.892883 593.561768,173.195282 588.255066,173.443069 
	C581.361511,173.764954 578.069580,176.659576 578.192444,182.983261 
	C578.269165,186.928528 576.552979,189.282516 573.237366,190.809235 
	C569.916870,192.338226 566.668213,194.058334 562.960388,194.570496 
	C559.210876,195.088409 557.723145,193.250610 557.729004,189.756104 
	C557.732422,187.690033 558.308044,185.728561 559.576233,184.148865 
	C569.486328,171.804718 582.379272,163.863052 597.916809,161.900528 
	C612.418274,160.068893 622.112732,169.981339 622.087036,185.064255 
	C622.064087,198.551788 621.515564,212.038269 621.222595,225.525726 
	C621.179199,227.522934 621.123779,229.537079 621.319824,231.519058 
	C621.910583,237.491272 626.043518,239.829086 631.521423,237.392792 
	C633.388733,236.562271 635.346863,234.416595 637.264893,236.870041 
	C639.155701,239.288635 637.228699,241.322845 635.716064,243.015015 
	C630.057617,249.345062 623.236023,252.888504 614.061035,251.258881 
M591.882019,237.489441 
	C593.944153,236.563553 595.828735,235.198227 596.216125,232.960434 
	C597.179443,227.395645 597.806152,221.763260 597.557251,216.099243 
	C597.446655,213.582764 595.801697,213.119324 593.674622,213.952332 
	C589.937744,215.415695 586.289368,217.112091 583.341614,219.881378 
	C579.898438,223.116013 578.689331,231.027679 581.159851,234.756073 
	C583.569031,238.392075 587.024780,239.451218 591.882019,237.489441 
z"/>
<path fill="#000000" opacity="1.000000" stroke="none" 
	d="
M960.473145,172.599625 
	C964.268921,177.124435 965.963257,182.128937 966.248535,187.564072 
	C966.612732,194.504730 964.231628,197.018677 957.242859,197.076645 
	C945.417419,197.174774 933.590637,197.103088 921.764465,197.124771 
	C914.047180,197.138916 912.884094,198.116119 913.411438,205.775406 
	C914.188782,217.065659 919.451111,225.943542 929.687378,230.947021 
	C939.785217,235.882828 949.401978,233.716568 958.285706,227.170273 
	C960.362061,225.640305 962.429077,221.845901 965.318176,224.368561 
	C967.983093,226.695618 965.679810,229.981232 964.359314,232.594604 
	C953.115356,254.847916 920.466736,258.586334 903.837708,239.376190 
	C885.969910,218.734955 887.570740,177.875381 921.399658,164.116470 
	C933.769165,159.085510 950.629395,160.219818 960.473145,172.599625 
M946.502869,179.298904 
	C943.567200,172.151184 938.372925,169.134842 930.782593,170.170059 
	C924.548096,171.020370 917.048767,178.199936 916.408447,183.812775 
	C916.035706,187.080002 917.847961,187.865753 920.575928,187.848846 
	C926.892578,187.809692 933.211365,187.883621 939.525452,187.741074 
	C946.284729,187.588516 946.839844,186.901840 946.502869,179.298904 
z"/>
<path fill="#000000" opacity="1.000000" stroke="none" 
	d="
M873.905396,169.727417 
	C872.950928,178.275909 872.163391,186.375015 872.266296,194.558853 
	C872.423401,207.053436 872.507080,219.555725 872.224915,232.045776 
	C872.106262,237.296539 874.206482,240.213608 879.065063,241.519592 
	C879.866638,241.735046 880.674011,241.976624 881.425354,242.322144 
	C883.410583,243.235062 885.692505,244.134323 885.035034,246.925461 
	C884.437805,249.460953 882.105530,249.362579 880.130798,249.299133 
	C867.136902,248.881653 854.146973,248.901810 841.154297,249.360382 
	C839.009216,249.436111 836.469666,249.563446 835.967590,246.695953 
	C835.474609,243.880630 837.810852,243.131958 839.873230,242.353577 
	C848.671936,239.032852 848.674438,239.031982 848.676575,229.502090 
	C848.679382,216.838974 848.661194,204.175812 848.683899,191.512741 
	C848.695068,185.297943 847.641602,179.837311 840.472717,177.882767 
	C838.546814,177.357712 837.604065,175.695770 837.779785,173.585464 
	C837.949829,171.543228 839.377319,170.801941 841.102600,170.414230 
	C850.795837,168.235886 859.524170,163.727936 868.304077,159.299500 
	C873.198242,156.830917 874.634216,157.864075 874.394958,163.302521 
	C874.307129,165.298996 874.120605,167.291107 873.905396,169.727417 
z"/>
<path fill="#000000" opacity="1.000000" stroke="none" 
	d="
M845.716858,130.345139 
	C848.165466,121.240707 854.864441,116.616539 862.620789,118.267281 
	C871.193604,120.091812 875.614319,126.655693 874.297668,135.604996 
	C873.296936,142.406815 866.453125,147.668045 859.146118,147.252823 
	C850.827820,146.780121 845.611938,140.394501 845.716858,130.345139 
z"/>
<path fill="#000000" opacity="1.000000" stroke="none" 
	d="
M197.787338,160.771698 
	C209.901459,164.392883 215.262939,171.685562 215.353729,184.030853 
	C215.381836,187.853226 215.237045,191.724060 215.773178,195.486969 
	C217.644775,208.623260 227.377502,215.006790 237.926163,220.563873 
	C239.391983,221.336044 240.989731,221.869202 242.551086,222.446259 
	C245.843048,223.662964 248.037766,225.919861 247.884323,229.480972 
	C247.732361,233.007919 245.365814,235.287872 242.080811,236.226196 
	C238.898315,237.135223 237.109619,238.238190 237.183701,242.258331 
	C237.388290,253.359894 228.001022,260.922363 217.109924,258.641968 
	C207.507843,256.631409 197.878708,254.588379 188.480820,251.816269 
	C181.181610,249.663223 174.317322,249.580719 167.027130,251.707245 
	C157.935684,254.359177 148.683884,256.537262 139.404404,258.449707 
	C127.458488,260.911652 118.581673,253.057983 119.457520,240.954315 
	C119.667671,238.050095 118.546753,236.954178 116.074051,236.573166 
	C111.707970,235.900391 109.011543,233.482651 108.867554,229.015732 
	C108.720566,224.455353 112.165367,222.838806 115.813568,221.690430 
	C125.479912,218.647659 132.576401,212.379730 138.128052,204.116150 
	C140.055099,201.247772 140.821503,198.127853 140.836166,194.682877 
	C140.860916,188.867416 140.400085,183.030106 141.708755,177.259140 
	C143.955307,167.352371 151.283966,161.345276 161.471008,160.599045 
	C173.454239,159.721222 185.407272,159.538467 197.787338,160.771698 
M205.125229,229.377289 
	C208.406342,232.180695 211.646942,235.033569 214.984711,237.767807 
	C216.808228,239.261612 218.668900,241.929794 221.292801,239.259796 
	C224.065979,236.437912 221.944244,234.076340 219.934280,231.995834 
	C216.821228,228.773529 213.612671,225.642883 210.423096,222.495193 
	C203.338272,215.503357 199.045395,207.452423 200.589905,197.104889 
	C200.758133,195.977783 200.637344,194.768005 200.437866,193.633987 
	C200.050171,191.429840 199.409973,189.276932 196.569107,189.281662 
	C193.553146,189.286682 192.665909,191.411896 192.408463,193.904343 
	C191.007919,207.463379 193.295883,219.752640 205.125229,229.377289 
M149.205078,219.650406 
	C144.625198,224.240234 140.000244,228.786377 135.488693,233.442413 
	C133.798660,235.186569 133.485031,237.368576 135.139603,239.301102 
	C136.908264,241.366852 138.891861,240.205078 140.436798,238.947845 
	C144.687897,235.488403 148.769730,231.822067 152.969666,228.298492 
	C164.322189,218.774139 164.863113,206.005173 163.723038,192.716156 
	C163.558014,190.792679 162.560730,189.625336 160.631149,189.419968 
	C158.419052,189.184540 156.991745,190.507477 156.658554,192.412201 
	C156.233505,194.842117 156.166962,197.389328 156.338272,199.858765 
	C156.851517,207.257355 154.450836,213.576553 149.205078,219.650406 
z"/>
<path fill="#000000" opacity="1.000000" stroke="none" 
	d="
M168.080490,148.208801 
	C158.993271,142.050217 155.766083,133.640717 158.663040,124.361526 
	C161.190170,116.266937 169.679413,110.140251 178.432083,110.094223 
	C186.917603,110.049599 195.126984,115.937454 197.665237,124.198494 
	C200.109497,132.153641 198.773102,139.491684 192.470352,145.169037 
	C185.327255,151.603363 177.128586,152.509598 168.080490,148.208801 
z"/>
<path fill="#000000" opacity="1.000000" stroke="none" 
	d="
M107.906738,213.278046 
	C104.749725,210.061188 105.530457,207.329102 108.277512,204.880768 
	C112.983131,200.686920 117.715973,196.521042 122.524231,192.445862 
	C125.386902,190.019653 128.539993,189.256500 131.252441,192.554291 
	C133.768494,195.613327 132.683456,198.520370 129.932755,200.812241 
	C125.222649,204.736649 120.456139,208.599976 115.587288,212.324188 
	C113.455826,213.954529 111.011520,215.163910 107.906738,213.278046 
z"/>
<path fill="#000000" opacity="1.000000" stroke="none" 
	d="
M250.363327,207.760437 
	C250.329514,213.400284 246.770889,215.870132 242.445175,213.296677 
	C236.283127,209.630814 230.952301,204.797607 225.615936,200.042236 
	C223.413834,198.079849 222.819031,195.402084 224.720673,192.868256 
	C226.762695,190.147400 229.715225,189.870285 232.240509,191.782364 
	C238.579666,196.582245 245.154572,201.155243 250.363327,207.760437 
z"/>
<path fill="#000000" opacity="1.000000" stroke="none" 
	d="
M244.498810,175.654663 
	C245.963943,179.947006 243.843521,181.783371 240.380447,182.071594 
	C236.430435,182.400330 232.422470,182.335846 228.459717,182.102402 
	C225.796951,181.945526 223.522079,180.611557 223.499054,177.546188 
	C223.475418,174.400253 225.859161,173.096161 228.491425,173.142639 
	C233.815079,173.236664 239.469452,171.405228 244.498810,175.654663 
z"/>
<path fill="#000000" opacity="1.000000" stroke="none" 
	d="
M131.312241,180.694977 
	C125.791107,183.371811 120.343750,182.231949 114.996689,181.760071 
	C112.849533,181.570587 111.676941,179.736420 111.748398,177.432953 
	C111.820877,175.096207 113.208336,173.638702 115.336578,173.329330 
	C119.752892,172.687363 124.275917,172.414688 128.629105,173.418503 
	C132.332245,174.272400 133.960754,176.663010 131.312241,180.694977 
z"/>
<path fill="#000000" opacity="1.000000" stroke="none" 
	d="
M182.338165,88.245110 
	C182.332169,90.676628 182.395905,92.658958 182.299408,94.633453 
	C182.166550,97.351974 181.105316,99.771873 178.101562,99.781052 
	C175.048553,99.790398 174.110992,97.217484 173.901733,94.599930 
	C173.731476,92.470367 173.817902,90.314026 173.889404,88.172867 
	C173.991760,85.108658 174.201508,81.751816 178.273697,81.717636 
	C182.165436,81.684967 182.291748,84.874352 182.338165,88.245110 
z"/>
<path fill="#000000" opacity="1.000000" stroke="none" 
	d="
M175.277039,260.552826 
	C179.930450,258.562744 181.968033,259.600769 182.277924,263.917847 
	C182.479980,266.732758 182.355331,269.575226 182.295761,272.403656 
	C182.240768,275.015259 181.233597,277.038940 178.317673,277.178986 
	C175.624588,277.308350 174.369446,275.410675 174.115814,273.109955 
	C173.663025,269.002197 173.034485,264.819336 175.277039,260.552826 
z"/>
<path fill="#000000" opacity="1.000000" stroke="none" 
	d="
M221.822769,112.115448 
	C221.432404,116.952522 218.044495,118.892700 214.554794,120.477348 
	C211.654617,121.794296 209.234665,120.199875 209.038696,117.396523 
	C208.738480,113.101913 212.588287,111.285034 215.629745,109.427948 
	C218.267319,107.817474 220.373444,109.160194 221.822769,112.115448 
z"/>
<path fill="#000000" opacity="1.000000" stroke="none" 
	d="
M136.786743,116.985367 
	C134.791840,114.638603 133.704819,112.372604 135.816818,110.052551 
	C138.095352,107.549583 140.334305,109.265839 142.449570,110.581215 
	C143.290054,111.103882 144.109772,111.681679 144.856354,112.329567 
	C146.995743,114.186142 148.704422,116.401077 146.745789,119.174866 
	C144.730453,122.028976 142.162872,121.057678 139.796677,119.389084 
	C138.852158,118.723022 137.962082,117.979744 136.786743,116.985367 
z"/>
<path fill="#000000" opacity="1.000000" stroke="none" 
	d="
M138.018951,131.873688 
	C144.626709,133.145905 146.747208,135.984085 143.764206,139.163055 
	C141.336136,141.750626 138.147339,141.658493 134.973526,140.709381 
	C132.812485,140.063141 131.563400,138.589371 131.829544,136.278839 
	C132.219147,132.896667 134.965149,132.406235 138.018951,131.873688 
z"/>
<path fill="#000000" opacity="1.000000" stroke="none" 
	d="
M215.621216,140.810150 
	C212.809952,139.703064 211.188446,138.061172 212.067230,135.347748 
	C213.047485,132.321091 215.783295,131.700790 218.523895,131.944977 
	C221.109573,132.175385 224.065033,132.394608 224.892151,135.629074 
	C225.533081,138.135498 224.080170,139.677322 221.852753,140.594803 
	C219.945648,141.380371 217.994324,141.399048 215.621216,140.810150 
z"/>
<path fill="#000000" opacity="1.000000" stroke="none" 
	d="
M203.697052,95.163559 
	C206.155441,98.635345 204.446655,100.758263 201.891357,102.455093 
	C200.065659,103.667427 198.048965,103.710854 196.506500,101.915070 
	C194.867142,100.006447 195.117615,97.873672 196.562164,95.992027 
	C198.439362,93.546844 200.748108,92.848137 203.697052,95.163559 
z"/>
<path fill="#000000" opacity="1.000000" stroke="none" 
	d="
M152.427155,95.667496 
	C154.056427,93.831779 155.753052,93.336395 157.592529,94.272530 
	C160.186768,95.592781 161.788605,97.664314 160.885971,100.704964 
	C160.213852,102.969086 158.239349,103.751831 156.114395,103.171623 
	C152.484756,102.180573 150.991714,99.766205 152.427155,95.667496 
z"/>
</svg>