<svg version="1.1" id="Layer_1" xmlns="http://www.w3.org/2000/svg" xmlns:xlink="http://www.w3.org/1999/xlink" x="0px" y="0px"
	 width="100%" viewBox="0 0 816 816" enable-background="new 0 0 816 816" xml:space="preserve">
<path fill="#000000" opacity="1.000000" stroke="none" 
	d="
M302.331238,685.797607 
	C255.933685,666.021301 216.502625,637.440918 184.997742,598.405762 
	C153.827148,559.784790 133.898117,515.989502 125.658699,466.940643 
	C121.357498,441.335815 120.584297,415.566620 122.950439,389.813629 
	C128.035507,334.467804 148.440201,284.996429 182.369644,241.176468 
	C227.667358,182.674332 286.680847,145.316605 358.873230,129.398636 
	C404.361359,119.368790 449.487000,122.301819 494.005280,136.033615 
	C555.288574,154.936584 605.760681,189.580414 644.871033,240.285904 
	C677.158752,282.145966 697.188721,329.476471 703.894775,382.036835 
	C709.834167,428.588440 704.424072,474.062256 688.280151,518.108154 
	C659.140808,597.610107 603.599243,651.716187 526.725281,685.143860 
	C499.151031,697.134216 470.248932,704.012390 440.468842,707.089172 
	C404.786621,710.775696 369.721619,706.962158 335.209076,697.253723 
	C324.116516,694.133423 313.414429,690.029053 302.331238,685.797607 
M200.519455,558.002136 
	C208.875000,570.297241 218.072235,581.934692 228.526169,592.499878 
	C264.959290,629.320618 308.448456,653.636475 358.885406,665.436035 
	C384.882965,671.518005 411.260834,673.368530 437.773346,670.521667 
	C464.383270,667.664307 490.131683,661.245605 514.813416,650.450989 
	C559.900513,630.732056 596.950928,601.165405 625.189209,560.936646 
	C646.801941,530.146606 658.794739,495.508087 665.039001,458.497009 
	C670.001770,429.082153 670.337708,399.820282 664.563965,370.700531 
	C654.738647,321.146667 632.591431,277.663696 597.467224,241.177063 
	C572.355103,215.090851 543.259583,194.486526 509.933228,180.045898 
	C465.038269,160.592453 418.530151,154.016907 370.349915,163.764908 
	C318.143341,174.327515 272.937164,198.718506 235.599594,236.569443 
	C177.201065,295.770874 151.753433,366.959991 161.102982,449.979828 
	C165.482529,488.868164 178.086319,524.873047 200.519455,558.002136 
z"/>
<path fill="#000000" opacity="1.000000" stroke="none" 
	d="
M473.913330,377.972900 
	C490.975403,388.605804 499.562653,403.474274 499.341400,423.439362 
	C499.236389,432.915771 499.036652,442.400879 499.771240,451.894775 
	C500.931885,466.894135 507.957092,478.794586 518.568359,488.825378 
	C531.376831,500.933228 545.189575,511.410919 562.640137,516.263245 
	C571.487549,518.723389 575.699707,524.857300 575.174255,532.565674 
	C574.691162,539.652527 568.739868,545.697144 560.318481,547.274719 
	C556.622009,547.967224 552.823792,548.116638 548.486206,548.574402 
	C549.679565,553.872253 550.405151,558.914368 550.377258,564.063171 
	C550.286438,580.815979 538.201294,595.057129 521.756592,598.346313 
	C509.317047,600.834351 497.654510,597.530945 485.882965,594.694641 
	C463.411682,589.280334 440.924316,583.917542 418.554169,578.107788 
	C412.049561,576.418457 406.379456,578.563660 400.483429,579.963928 
	C375.885773,585.805969 351.337372,591.854919 326.749329,597.738037 
	C314.822205,600.591736 303.151733,600.174866 292.648743,593.124329 
	C280.084595,584.690125 274.406860,569.040833 277.966125,554.015930 
	C278.344727,552.417847 278.721191,550.819214 279.166534,548.933228 
	C275.575012,547.842957 272.170807,547.591980 268.750488,547.275024 
	C259.860321,546.451172 253.114746,539.763184 252.727234,531.557922 
	C252.374329,524.085693 257.176849,518.371765 265.632690,516.054504 
	C290.389923,509.269897 308.242157,493.418701 321.942566,472.458740 
	C326.073090,466.139557 327.729797,458.796417 327.825165,451.074249 
	C327.966980,439.595581 327.327576,428.115295 328.555389,416.632050 
	C331.229858,391.619446 347.823486,374.466827 373.262482,371.939117 
	C394.174286,369.861237 415.198608,371.006683 436.166565,371.437195 
	C443.628662,371.590424 451.161652,371.030151 458.586121,372.486664 
	C463.858856,373.520996 468.874298,375.220032 473.913330,377.972900 
M491.494354,516.995605 
	C488.679840,513.925720 485.776398,510.932129 483.066498,507.772522 
	C472.177917,495.077026 465.119232,481.024811 466.821899,463.597626 
	C467.369904,457.988403 467.078461,452.265015 466.784058,446.614014 
	C466.444031,440.088409 461.918793,435.914398 455.851318,436.016785 
	C449.668213,436.121124 446.233673,439.797852 446.145935,446.811676 
	C446.022980,456.642456 446.542603,466.501312 445.978973,476.301666 
	C445.179779,490.198303 449.698944,502.293396 457.625366,513.172363 
	C470.324677,530.601990 487.790527,543.154419 503.913452,557.039368 
	C507.436218,560.073181 511.808807,559.693237 515.426208,556.694702 
	C519.233032,553.539062 519.590881,549.299133 518.106750,544.844116 
	C517.244385,542.255432 515.438538,540.278809 513.498352,538.404358 
	C506.308716,531.458679 499.153656,524.477112 491.494354,516.995605 
M320.249969,532.749756 
	C317.534058,535.449707 314.723389,538.062073 312.128296,540.873535 
	C309.404480,543.824402 308.040497,547.380493 308.922577,551.418213 
	C310.748291,559.775635 319.522797,561.756897 327.006012,555.308350 
	C337.218353,546.508118 347.642883,537.892578 357.216522,528.429016 
	C368.421448,517.352844 378.401245,504.987061 380.973877,488.827240 
	C383.335602,473.992371 382.134705,458.923737 381.505524,443.971741 
	C381.323730,439.652161 378.064789,436.921448 373.563995,436.220856 
	C366.636627,435.142578 361.693878,439.640259 361.303131,447.901764 
	C360.996643,454.382629 360.779022,460.924377 361.301300,467.375977 
	C362.393097,480.862335 357.263885,492.115753 349.570557,502.532349 
	C341.306824,513.721375 330.713165,522.690430 320.249969,532.749756 
z"/>
<path fill="#000000" opacity="1.000000" stroke="none" 
	d="
M460.236877,307.109497 
	C457.235229,334.852570 428.599792,353.245850 400.992828,345.573364 
	C380.204102,339.795776 365.731323,320.259430 366.894043,299.544342 
	C368.193512,276.392609 383.473816,259.356232 406.128510,255.800903 
	C435.048492,251.262344 460.206055,272.143951 460.789673,301.217651 
	C460.826111,303.033447 460.453369,304.857483 460.236877,307.109497 
z"/>
<path fill="#000000" opacity="1.000000" stroke="none" 
	d="
M301.033813,443.702637 
	C307.621002,449.905701 308.381927,456.868256 301.928284,462.471161 
	C289.775360,473.022034 277.847809,483.917816 264.470703,492.972931 
	C260.428833,495.708893 255.883499,496.753479 251.280350,494.252350 
	C247.666245,492.288635 245.738937,489.166229 245.702011,484.913757 
	C245.671631,481.416504 247.461304,478.846466 249.857437,476.734222 
	C261.823578,466.186035 273.797791,455.644043 285.935303,445.294708 
	C290.284454,441.586304 295.332306,440.391022 301.033813,443.702637 
z"/>
<path fill="#000000" opacity="1.000000" stroke="none" 
	d="
M575.482788,474.520691 
	C582.512512,480.649628 583.989441,485.967865 580.326599,491.048157 
	C577.001831,495.659668 568.666382,497.630219 562.037415,492.273193 
	C550.005737,482.550049 537.798767,473.042053 525.845642,463.224274 
	C521.611023,459.746155 519.404419,455.006073 521.277954,449.422058 
	C522.718018,445.130157 526.066772,442.652863 530.559143,442.064850 
	C535.484619,441.420044 539.152527,444.212250 542.631226,447.089447 
	C553.532349,456.105591 564.359253,465.211548 575.482788,474.520691 
z"/>
<path fill="#000000" opacity="1.000000" stroke="none" 
	d="
M542.004272,420.297363 
	C537.343811,420.286377 533.175964,420.414429 529.022217,420.229126 
	C523.957520,420.003174 519.975769,416.075134 519.813782,411.456665 
	C519.656189,406.961243 523.554443,402.206635 528.436707,402.076813 
	C539.079285,401.793854 549.746277,401.745941 560.381714,402.158386 
	C565.944763,402.374146 569.412109,406.736969 569.225952,411.754211 
	C569.039124,416.788818 565.240479,420.188538 559.482300,420.278412 
	C553.823853,420.366760 548.162964,420.297546 542.004272,420.297363 
z"/>
<path fill="#000000" opacity="1.000000" stroke="none" 
	d="
M289.970825,420.308380 
	C282.671509,420.296753 275.865814,420.343292 269.061707,420.259064 
	C262.823883,420.181824 258.811859,416.567841 258.792206,411.186157 
	C258.772949,405.899658 262.876801,402.045593 269.018280,401.962402 
	C278.311035,401.836548 287.611176,401.748199 296.899353,401.987762 
	C302.561829,402.133789 306.931030,406.869568 306.727142,411.903931 
	C306.520477,417.006561 302.551941,420.261383 296.440247,420.319916 
	C294.448761,420.338989 292.456848,420.314240 289.970825,420.308380 
z"/>
<path fill="#000000" opacity="1.000000" stroke="none" 
	d="
M405.986847,637.510986 
	C404.387115,628.857056 404.890808,620.517090 405.159088,612.226990 
	C405.366058,605.831055 408.695435,602.544739 413.709473,602.601746 
	C418.838470,602.660034 422.346649,605.897583 422.601135,612.006470 
	C422.911438,619.456665 422.621338,626.944519 422.301422,634.403625 
	C422.110138,638.863464 419.402283,641.930664 415.199066,643.039734 
	C410.817322,644.195801 407.901764,641.819702 405.986847,637.510986 
z"/>
<path fill="#000000" opacity="1.000000" stroke="none" 
	d="
M405.352997,195.588226 
	C406.589630,189.399536 409.640045,186.563202 414.167816,187.031876 
	C418.838043,187.515274 422.216400,191.444687 422.300964,196.756302 
	C422.409454,203.571014 422.391968,210.388107 422.385559,217.204163 
	C422.379700,223.429153 418.313324,228.309967 413.283600,228.206024 
	C408.826385,228.113937 404.753754,223.359711 405.128693,217.405121 
	C405.579102,210.252686 405.471771,203.136276 405.352997,195.588226 
z"/>
<path fill="#000000" opacity="1.000000" stroke="none" 
	d="
M511.823578,266.703064 
	C508.351685,269.593231 505.245636,272.382019 501.865875,274.785950 
	C498.147736,277.430603 493.996552,278.579102 489.771301,275.902588 
	C485.342926,273.097351 484.702087,267.127472 488.684418,262.889404 
	C491.737396,259.640381 495.305450,256.835876 498.845764,254.093521 
	C504.154968,249.980942 507.888641,249.961594 511.735382,253.649307 
	C515.811646,257.557068 515.891846,260.632599 511.823578,266.703064 
z"/>
<path fill="#000000" opacity="1.000000" stroke="none" 
	d="
M312.394867,261.431030 
	C312.771332,251.867554 319.215973,248.336929 326.772400,253.345963 
	C330.624603,255.899506 334.295074,258.798615 337.726257,261.897400 
	C341.782318,265.560608 342.264191,270.166473 339.487915,273.890839 
	C336.659485,277.685181 331.519257,278.691406 327.063446,275.602844 
	C321.544312,271.777283 315.443665,268.404358 312.394867,261.431030 
z"/>
<path fill="#000000" opacity="1.000000" stroke="none" 
	d="
M307.757019,308.905579 
	C315.240234,303.895721 323.040009,305.329865 330.549561,307.149841 
	C333.868958,307.954315 335.421661,311.560638 335.139435,315.251221 
	C334.847107,319.074036 332.930389,322.026367 329.252472,323.161346 
	C323.580841,324.911530 317.643219,324.932190 312.013702,323.336823 
	C305.666870,321.538177 304.026520,315.633392 307.757019,308.905579 
z"/>
<path fill="#000000" opacity="1.000000" stroke="none" 
	d="
M495.300476,308.270630 
	C502.491577,304.396820 509.735138,305.295319 516.759949,307.045685 
	C520.353943,307.941223 522.157837,311.413177 522.071960,315.229187 
	C521.985229,319.080383 519.811768,322.046631 516.303467,323.190247 
	C510.545776,325.067078 504.423065,325.106232 498.728699,323.240875 
	C492.416107,321.173065 491.072449,314.779694 495.300476,308.270630 
z"/>
<path fill="#000000" opacity="1.000000" stroke="none" 
	d="
M357.948914,216.473145 
	C365.558411,215.263443 371.945709,219.848984 373.027191,226.878143 
	C373.985229,233.105118 367.325775,238.637634 361.463776,236.398010 
	C356.858124,234.638382 353.392273,231.472534 352.479645,226.557571 
	C351.680176,222.252121 353.781342,218.864243 357.948914,216.473145 
z"/>
<path fill="#000000" opacity="1.000000" stroke="none" 
	d="
M466.025574,236.329834 
	C460.038696,237.329376 455.831116,234.703934 454.851868,229.706680 
	C453.785706,224.265884 458.068848,217.421310 463.359131,216.111816 
	C468.271271,214.895935 473.723145,218.147644 474.994171,223.051453 
	C476.170868,227.591232 473.009125,232.424759 466.025574,236.329834 
z"/>
</svg>